<svg width="216" height="48" viewBox="0 0 216 48" fill="none" xmlns="http://www.w3.org/2000/svg">
<path d="M5.04 39V4.584H17.904C20.432 4.584 22.736 5 24.816 5.832C26.928 6.664 28.72 7.832 30.192 9.336C31.696 10.84 32.848 12.648 33.648 14.76C34.448 16.872 34.848 19.224 34.848 21.816C34.848 24.376 34.448 26.712 33.648 28.824C32.848 30.936 31.696 32.744 30.192 34.248C28.72 35.752 26.928 36.92 24.816 37.752C22.736 38.584 20.432 39 17.904 39H5.04ZM9.744 35.208H17.904C20.432 35.208 22.608 34.664 24.432 33.576C26.256 32.488 27.648 30.952 28.608 28.968C29.6 26.952 30.096 24.568 30.096 21.816C30.096 19.064 29.6 16.68 28.608 14.664C27.648 12.648 26.256 11.096 24.432 10.008C22.608 8.92 20.432 8.376 17.904 8.376H9.744V35.208ZM1.584 39V37.032C1.584 36.744 1.648 36.52 1.776 36.36C1.904 36.168 2.096 36.056 2.352 36.024L5.952 35.256L6.48 39H1.584ZM6.48 4.584L5.952 8.328L2.352 7.56C2.096 7.496 1.904 7.384 1.776 7.224C1.648 7.064 1.584 6.84 1.584 6.552V4.584H6.48ZM43.4813 39V3.624H47.7533V17.928C48.8093 16.84 49.9613 15.96 51.2093 15.288C52.4893 14.616 53.9453 14.28 55.5773 14.28C57.3693 14.28 58.8573 14.664 60.0413 15.432C61.2573 16.2 62.1693 17.288 62.7773 18.696C63.4173 20.072 63.7373 21.672 63.7373 23.496V39H59.4653V23.496C59.4653 21.672 59.0333 20.248 58.1693 19.224C57.3373 18.2 56.0573 17.688 54.3293 17.688C53.0813 17.688 51.8973 17.992 50.7773 18.6C49.6893 19.208 48.6813 20.04 47.7533 21.096V39H43.4813ZM62.2973 39L62.8253 35.256L66.4253 36.024C66.6813 36.056 66.8733 36.168 67.0013 36.36C67.1293 36.52 67.1933 36.744 67.1933 37.032V39H62.2973ZM40.0253 39V37.032C40.0253 36.744 40.0893 36.52 40.2173 36.36C40.3453 36.168 40.5373 36.056 40.7933 36.024L44.3933 35.256L44.9213 39H40.0253ZM44.9213 3.624L44.3933 7.368L40.7933 6.6C40.5373 6.536 40.3453 6.424 40.2173 6.264C40.0893 6.104 40.0253 5.88 40.0253 5.592V3.624H44.9213ZM46.3133 39L46.8413 35.256L50.4413 36.024C50.6973 36.056 50.8893 36.168 51.0173 36.36C51.1453 36.52 51.2093 36.744 51.2093 37.032V39H46.3133ZM75.0375 39V14.664H77.4855C77.9655 14.664 78.3015 14.76 78.4935 14.952C78.6855 15.112 78.7975 15.416 78.8295 15.864L79.1175 19.656C79.9495 17.96 80.9735 16.632 82.1895 15.672C83.4055 14.712 84.8455 14.232 86.5095 14.232C87.1815 14.232 87.7895 14.312 88.3335 14.472C88.8775 14.632 89.3735 14.84 89.8215 15.096L89.2935 18.312C89.2615 18.504 89.1655 18.648 89.0055 18.744C88.8775 18.84 88.7175 18.888 88.5255 18.888C88.3015 18.888 87.8695 18.824 87.2295 18.696C86.5895 18.536 86.0295 18.456 85.5495 18.456C84.0775 18.456 82.8295 18.888 81.8055 19.752C80.8135 20.616 79.9815 21.864 79.3095 23.496V39H75.0375ZM77.8695 39L78.3975 35.256L81.9975 36.024C82.2535 36.056 82.4455 36.168 82.5735 36.36C82.7015 36.52 82.7655 36.744 82.7655 37.032V39H77.8695ZM71.5815 39V37.032C71.5815 36.744 71.6455 36.52 71.7735 36.36C71.9015 36.168 72.0935 36.056 72.3495 36.024L75.9495 35.256L76.4775 39H71.5815ZM76.4775 14.664L75.9495 18.408L72.3495 17.64C72.0935 17.576 71.9015 17.464 71.7735 17.304C71.6455 17.144 71.5815 16.92 71.5815 16.632V14.664H76.4775ZM104.791 39.384C103.031 39.384 101.543 39 100.327 38.232C99.1115 37.432 98.1835 36.344 97.5435 34.968C96.9355 33.592 96.6315 31.992 96.6315 30.168V14.664H100.903V30.168C100.903 32.024 101.319 33.464 102.151 34.488C103.015 35.48 104.311 35.976 106.039 35.976C107.287 35.976 108.455 35.688 109.543 35.112C110.663 34.504 111.687 33.672 112.615 32.616V14.664H116.887V39H114.343C113.703 39 113.319 38.696 113.191 38.088L112.855 35.496C111.799 36.648 110.615 37.592 109.303 38.328C107.991 39.032 106.487 39.384 104.791 39.384ZM115.447 39L115.975 35.256L119.575 36.024C119.831 36.056 120.023 36.168 120.151 36.36C120.279 36.52 120.343 36.744 120.343 37.032V39H115.447ZM98.0715 14.664L97.5435 18.408L93.9435 17.64C93.6875 17.576 93.4955 17.464 93.3675 17.304C93.2395 17.144 93.1755 16.92 93.1755 16.632V14.664H98.0715ZM114.055 14.664L113.527 18.408L109.927 17.64C109.671 17.576 109.479 17.464 109.351 17.304C109.223 17.144 109.159 16.92 109.159 16.632V14.664H114.055ZM135.798 39L125.862 14.664H129.366C129.718 14.664 130.006 14.76 130.23 14.952C130.454 15.112 130.614 15.32 130.71 15.576L136.854 31.224C137.014 31.64 137.158 32.12 137.286 32.664C137.446 33.208 137.606 33.864 137.766 34.632C137.894 34.088 138.022 33.528 138.15 32.952C138.31 32.376 138.502 31.8 138.726 31.224L144.966 15.576C145.062 15.32 145.206 15.112 145.398 14.952C145.622 14.76 145.894 14.664 146.214 14.664H149.574L139.638 39H135.798ZM128.838 15.864V14.664H132.438V15.864H128.838ZM143.766 15.864V14.664H147.366V15.864H143.766ZM129.126 14.664L128.598 18.408L124.998 17.64C124.742 17.576 124.55 17.464 124.422 17.304C124.294 17.144 124.23 16.92 124.23 16.632V14.664H129.126ZM135.126 14.664V16.632C135.126 16.92 135.062 17.144 134.934 17.304C134.806 17.464 134.614 17.576 134.358 17.64L130.758 18.408L130.23 14.664H135.126ZM145.206 14.664L144.678 18.408L141.078 17.64C140.822 17.576 140.63 17.464 140.502 17.304C140.374 17.144 140.31 16.92 140.31 16.632V14.664H145.206ZM151.206 14.664V16.632C151.206 16.92 151.142 17.144 151.014 17.304C150.886 17.464 150.694 17.576 150.438 17.64L146.838 18.408L146.31 14.664H151.206ZM188.035 39.384C185.635 39.384 183.411 39 181.363 38.232C179.315 37.464 177.523 36.28 175.987 34.68C174.579 33.144 173.459 31.32 172.627 29.208C171.827 27.064 171.427 24.664 171.427 22.008C171.427 19.448 171.811 17.112 172.579 15C173.347 12.856 174.499 11 176.035 9.432C177.539 7.896 179.331 6.728 181.411 5.928C183.523 5.128 185.843 4.728 188.371 4.728C189.907 4.728 191.395 4.84 192.835 5.064C194.307 5.288 195.699 5.608 197.011 6.024C198.323 6.44 199.475 6.952 200.467 7.56V9.048L198.787 8.712C197.539 8.04 196.051 7.512 194.323 7.128C192.595 6.712 190.659 6.504 188.515 6.504C185.379 6.504 182.691 7.144 180.451 8.424C178.211 9.704 176.499 11.512 175.315 13.848C174.163 16.184 173.587 18.92 173.587 22.056C173.587 25.224 174.163 27.976 175.315 30.312C176.499 32.616 178.179 34.424 180.355 35.736C182.531 37.016 185.123 37.656 188.131 37.656C190.339 37.656 192.259 37.416 193.891 36.936C195.555 36.424 197.171 35.688 198.739 34.728V25.416H192.019C191.859 25.416 191.731 25.368 191.635 25.272C191.539 25.176 191.491 25.064 191.491 24.936V23.784H200.659V35.688C198.931 36.872 197.043 37.784 194.995 38.424C192.947 39.064 190.627 39.384 188.035 39.384ZM198.595 8.424L200.467 9.048V13.512H199.459C199.331 13.512 199.219 13.464 199.123 13.368C199.027 13.272 198.963 13.144 198.931 12.984L198.595 8.424ZM211.203 39.384C210.659 39.384 210.179 39.176 209.763 38.76C209.347 38.344 209.139 37.848 209.139 37.272C209.139 36.696 209.347 36.2 209.763 35.784C210.179 35.368 210.675 35.16 211.251 35.16C211.827 35.16 212.323 35.368 212.739 35.784C213.155 36.2 213.363 36.696 213.363 37.272C213.363 37.848 213.155 38.344 212.739 38.76C212.323 39.176 211.811 39.384 211.203 39.384Z" fill="white"/>
</svg>
