<svg width="172" height="96" viewBox="0 0 172 96" fill="none" xmlns="http://www.w3.org/2000/svg">
<path d="M15.2727 41H3.44318V6.09091H15.5114C18.9773 6.09091 21.9545 6.78977 24.4432 8.1875C26.9432 9.57386 28.8636 11.5682 30.2045 14.1705C31.5455 16.7727 32.2159 19.8864 32.2159 23.5114C32.2159 27.1477 31.5398 30.2727 30.1875 32.8864C28.8466 35.5 26.9091 37.5057 24.375 38.9034C21.8523 40.3011 18.8182 41 15.2727 41ZM9.76705 35.5284H14.9659C17.3977 35.5284 19.4261 35.0852 21.0511 34.1989C22.6761 33.3011 23.8977 31.9659 24.7159 30.1932C25.5341 28.4091 25.9432 26.1818 25.9432 23.5114C25.9432 20.8409 25.5341 18.625 24.7159 16.8636C23.8977 15.0909 22.6875 13.767 21.0852 12.892C19.4943 12.0057 17.517 11.5625 15.1534 11.5625H9.76705V35.5284ZM38.2244 41V6.09091H44.5483V20.8693H60.7244V6.09091H67.0653V41H60.7244V26.1705H44.5483V41H38.2244ZM73.9432 41V6.09091H87.0341C89.7159 6.09091 91.9659 6.55682 93.7841 7.48864C95.6136 8.42045 96.9943 9.72727 97.9261 11.4091C98.8693 13.0795 99.3409 15.0284 99.3409 17.2557C99.3409 19.4943 98.8636 21.4375 97.9091 23.0852C96.9659 24.7216 95.5739 25.9886 93.733 26.8864C91.892 27.7727 89.6307 28.2159 86.9489 28.2159H77.625V22.9659H86.0966C87.6648 22.9659 88.9489 22.75 89.9489 22.3182C90.9489 21.875 91.6875 21.233 92.1648 20.392C92.6534 19.5398 92.8977 18.4943 92.8977 17.2557C92.8977 16.017 92.6534 14.9602 92.1648 14.0852C91.6761 13.1989 90.9318 12.5284 89.9318 12.0739C88.9318 11.608 87.642 11.375 86.0625 11.375H80.267V41H73.9432ZM91.9773 25.1818L100.619 41H93.5625L85.0739 25.1818H91.9773ZM127.168 6.09091H133.491V28.8977C133.491 31.3977 132.901 33.5966 131.719 35.4943C130.548 37.392 128.901 38.875 126.776 39.9432C124.651 41 122.168 41.5284 119.327 41.5284C116.474 41.5284 113.986 41 111.861 39.9432C109.736 38.875 108.088 37.392 106.918 35.4943C105.747 33.5966 105.162 31.3977 105.162 28.8977V6.09091H111.486V28.3693C111.486 29.8239 111.804 31.1193 112.44 32.2557C113.088 33.392 113.997 34.2841 115.168 34.9318C116.338 35.5682 117.724 35.8864 119.327 35.8864C120.929 35.8864 122.315 35.5682 123.486 34.9318C124.668 34.2841 125.577 33.392 126.213 32.2557C126.849 31.1193 127.168 29.8239 127.168 28.3693V6.09091ZM145.036 6.09091L154.121 33.5682H154.479L163.547 6.09091H170.501L158.195 41H150.388L138.098 6.09091H145.036Z" fill="white"/>
<path d="M26.8295 65.2386C26.5455 64.3182 26.1534 63.4943 25.6534 62.767C25.1648 62.0284 24.5739 61.3977 23.8807 60.875C23.1989 60.3523 22.4148 59.9602 21.5284 59.6989C20.642 59.4261 19.6761 59.2898 18.6307 59.2898C16.7557 59.2898 15.0852 59.7614 13.6193 60.7045C12.1534 61.6477 11 63.0341 10.1591 64.8636C9.32955 66.6818 8.91477 68.8977 8.91477 71.5114C8.91477 74.1477 9.32955 76.3807 10.1591 78.2102C10.9886 80.0398 12.142 81.4318 13.6193 82.3864C15.0966 83.3295 16.8125 83.8011 18.767 83.8011C20.5398 83.8011 22.0739 83.4602 23.3693 82.7784C24.6761 82.0966 25.6818 81.1307 26.3864 79.8807C27.0909 78.6193 27.4432 77.142 27.4432 75.4489L28.875 75.6705H19.3977V70.7273H33.5625V74.9205C33.5625 77.9091 32.9261 80.4943 31.6534 82.6761C30.3807 84.858 28.6307 86.5398 26.4034 87.7216C24.1761 88.892 21.6193 89.4773 18.733 89.4773C15.517 89.4773 12.6932 88.7557 10.2614 87.3125C7.84091 85.858 5.94886 83.7955 4.58523 81.125C3.23295 78.4432 2.55682 75.2614 2.55682 71.5795C2.55682 68.7614 2.95455 66.2443 3.75 64.0284C4.55682 61.8125 5.68182 59.9318 7.125 58.3864C8.56818 56.8295 10.2614 55.6477 12.2045 54.8409C14.1477 54.0227 16.2614 53.6136 18.5455 53.6136C20.4773 53.6136 22.2784 53.8977 23.9489 54.4659C25.6193 55.0227 27.1023 55.8182 28.3977 56.8523C29.7045 57.8864 30.7784 59.1136 31.6193 60.5341C32.4602 61.9545 33.0114 63.5227 33.2727 65.2386H26.8295ZM63.4592 54.0909H69.7831V76.8977C69.7831 79.3977 69.1922 81.5966 68.0104 83.4943C66.8399 85.392 65.1922 86.875 63.0672 87.9432C60.9422 89 58.4592 89.5284 55.6183 89.5284C52.7661 89.5284 50.2774 89 48.1524 87.9432C46.0274 86.875 44.3797 85.392 43.2092 83.4943C42.0388 81.5966 41.4536 79.3977 41.4536 76.8977V54.0909H47.7774V76.3693C47.7774 77.8239 48.0956 79.1193 48.732 80.2557C49.3797 81.392 50.2888 82.2841 51.4592 82.9318C52.6297 83.5682 54.0161 83.8864 55.6183 83.8864C57.2206 83.8864 58.607 83.5682 59.7774 82.9318C60.9592 82.2841 61.8683 81.392 62.5047 80.2557C63.1411 79.1193 63.4592 77.8239 63.4592 76.3693V54.0909ZM78.4327 89V54.0909H91.5236C94.2054 54.0909 96.4554 54.5909 98.2736 55.5909C100.103 56.5909 101.484 57.9659 102.416 59.7159C103.359 61.4545 103.83 63.4318 103.83 65.6477C103.83 67.8864 103.359 69.875 102.416 71.6136C101.472 73.3523 100.08 74.7216 98.2395 75.7216C96.3986 76.7102 94.1315 77.2045 91.4384 77.2045H82.7622V72.0057H90.5861C92.1543 72.0057 93.4384 71.733 94.4384 71.1875C95.4384 70.642 96.177 69.892 96.6543 68.9375C97.1429 67.983 97.3872 66.8864 97.3872 65.6477C97.3872 64.4091 97.1429 63.3182 96.6543 62.375C96.177 61.4318 95.4327 60.6989 94.4213 60.1761C93.4213 59.642 92.1315 59.375 90.552 59.375H84.7565V89H78.4327ZM109.565 59.392V54.0909H137.417V59.392H126.628V89H120.355V59.392H109.565ZM144.827 89H138.077L150.367 54.0909H158.174L170.48 89H163.73L154.407 61.25H154.134L144.827 89ZM145.049 75.3125H163.458V80.392H145.049V75.3125Z" fill="white"/>
</svg>
